<svg width="38" height="38" viewBox="0 0 38 38" fill="none" xmlns="http://www.w3.org/2000/svg">
<path d="M14.625 0.25H3.58333C1.70833 0.25 0.25 1.70833 0.25 3.58333V21.2917C0.25 23.1667 1.70833 24.625 3.58333 24.625H14.625C16.5 24.625 17.9583 23.1667 17.9583 21.2917V3.58333C17.9583 1.70833 16.5 0.25 14.625 0.25ZM13.5833 20.0417H4.625V4.625H13.375V20.0417H13.5833ZM14.625 26.7083H3.58333C1.70833 26.7083 0.25 28.1667 0.25 30.0417V34.4167C0.25 36.2917 1.70833 37.75 3.58333 37.75H14.625C16.5 37.75 17.9583 36.2917 17.9583 34.4167V30.0417C17.9583 28.1667 16.5 26.7083 14.625 26.7083ZM13.5833 33.375H4.625V31.0833H13.375V33.375H13.5833ZM34.4167 13.5833H23.375C21.5 13.5833 20.0417 15.0417 20.0417 16.9167V34.625C20.0417 36.5 21.5 37.9583 23.375 37.9583H34.4167C36.2917 37.9583 37.75 36.5 37.75 34.625V16.9167C37.75 15.0417 36.2917 13.5833 34.4167 13.5833ZM33.375 33.375H24.625V17.9583H33.375V33.375ZM34.4167 0.25H23.375C21.5 0.25 20.0417 1.70833 20.0417 3.58333V7.95833C20.0417 9.83333 21.5 11.2917 23.375 11.2917H34.4167C36.2917 11.2917 37.75 9.83333 37.75 7.95833V3.58333C37.75 1.70833 36.2917 0.25 34.4167 0.25ZM33.375 6.91667H24.625V4.625H33.375V6.91667Z" fill="#003AFF"/>
</svg>
