<svg width="201" height="100" viewBox="0 0 201 100" fill="none" xmlns="http://www.w3.org/2000/svg">
<path d="M27.5102 41.9722C26.9768 41.5389 26.1102 41.1722 24.9102 40.8722C23.7435 40.5722 22.8602 40.4222 22.2602 40.4222C21.6602 40.4222 21.3102 40.4222 21.2102 40.4222C19.4102 40.4556 18.1102 40.9222 17.3102 41.8222C16.5102 42.6889 16.1102 43.6722 16.1102 44.7722C16.1102 45.8722 16.4602 46.8056 17.1602 47.5722C17.8602 48.3056 18.7268 48.8889 19.7602 49.3222C20.8268 49.7222 21.9602 50.1889 23.1602 50.7222C24.3935 51.2556 25.5268 51.8056 26.5602 52.3722C27.6268 52.9056 28.5102 53.7056 29.2102 54.7722C29.9102 55.8056 30.2602 57.1056 30.2602 58.6722C30.2602 60.2389 29.7102 61.5722 28.6102 62.6722C27.5102 63.7722 26.2768 64.5056 24.9102 64.8722C23.5768 65.2389 22.1268 65.4222 20.5602 65.4222C17.1602 65.4222 14.6102 64.6722 12.9102 63.1722L13.2102 62.8722C13.8768 63.5056 14.8602 64.0222 16.1602 64.4222C17.4935 64.8222 18.7768 65.0222 20.0102 65.0222C21.9768 65.0222 23.5935 64.4889 24.8602 63.4222C26.1602 62.3222 26.8102 60.9722 26.8102 59.3722C26.8102 57.7389 26.3268 56.4389 25.3602 55.4722C24.3935 54.4722 23.2102 53.7056 21.8102 53.1722C20.4435 52.6056 19.0602 52.0556 17.6602 51.5222C16.2602 50.9556 15.0768 50.1889 14.1102 49.2222C13.1435 48.2222 12.6602 47.0722 12.6602 45.7722C12.6602 44.4722 12.9602 43.4222 13.5602 42.6222C14.1602 41.7889 14.9602 41.2056 15.9602 40.8722C17.6602 40.3056 19.3602 40.0222 21.0602 40.0222C23.9268 40.0222 26.1602 40.5556 27.7602 41.6222L27.5102 41.9722ZM33.7539 40.6222V40.2222H34.8039V35.2222H38.3039V40.2222H45.9539V40.6222H38.3039V58.8222C38.3039 60.9889 38.5372 62.5556 39.0039 63.5222C39.5039 64.4889 40.5206 64.9722 42.0539 64.9722C43.6206 64.9722 45.2039 64.6556 46.8039 64.0222L46.9539 64.4222C45.2872 65.0556 43.3706 65.3722 41.2039 65.3722C39.0706 65.3722 37.4706 64.9389 36.4039 64.0722C35.3372 63.1722 34.8039 61.4056 34.8039 58.7722V40.6222H33.7539ZM60.0629 65.4222C56.5629 65.4222 53.7129 64.4222 51.5129 62.4222C49.3129 60.4222 48.2129 57.3389 48.2129 53.1722C48.2129 49.0056 49.3462 45.7722 51.6129 43.4722C53.9129 41.1722 56.8129 40.0222 60.3129 40.0222C63.8462 40.0222 66.7129 41.0222 68.9129 43.0222C71.1129 45.0222 72.2129 48.1056 72.2129 52.2722C72.2129 56.4389 71.0629 59.6722 68.7629 61.9722C66.4962 64.2722 63.5962 65.4222 60.0629 65.4222ZM60.4129 40.4222C57.8796 40.4222 55.7796 41.5556 54.1129 43.8222C52.4462 46.0556 51.6129 49.1889 51.6129 53.2222C51.6129 57.2222 52.3796 60.1889 53.9129 62.1222C55.4462 64.0556 57.4796 65.0222 60.0129 65.0222C62.5462 65.0222 64.6462 63.9056 66.3129 61.6722C67.9796 59.4056 68.8129 56.2722 68.8129 52.2722C68.8129 48.2389 68.0462 45.2556 66.5129 43.3222C64.9796 41.3889 62.9462 40.4222 60.4129 40.4222ZM87.8914 40.4222C85.5247 40.4222 83.5414 41.5556 81.9414 43.8222C80.3747 46.0889 79.5914 49.2222 79.5914 53.2222C79.5914 57.2222 80.3081 60.1889 81.7414 62.1222C83.2081 64.0556 85.1247 65.0222 87.4914 65.0222C90.4581 65.0222 93.0914 64.5222 95.3914 63.5222L95.5414 63.8722C93.1747 64.9056 90.4081 65.4222 87.2414 65.4222C84.0747 65.4222 81.4414 64.4222 79.3414 62.4222C77.2414 60.4222 76.1914 57.3389 76.1914 53.1722C76.1914 49.0056 77.2914 45.7722 79.4914 43.4722C81.6914 41.1722 84.4914 40.0222 87.8914 40.0222C89.7914 40.0222 91.5414 40.4556 93.1414 41.3222C94.7747 42.1889 95.9747 43.5056 96.7414 45.2722H93.5414C93.0414 43.6389 92.2747 42.4222 91.2414 41.6222C90.2414 40.8222 89.1247 40.4222 87.8914 40.4222ZM104.264 27.7222V52.6222L115.264 40.2222H115.764L107.614 49.4222L118.364 65.2222H114.864L105.614 51.6222L104.264 53.1722V65.2222H100.764V27.7222H104.264Z" fill="url(#paint0_angular_11_479)"/>
<path d="M114.077 64.8C112.424 64.8 110.85 64.3467 109.357 63.44C107.864 62.48 106.744 61.04 105.997 59.12C105.73 58.4267 105.544 57.7067 105.437 56.96C105.33 56.16 105.277 55.3867 105.277 54.64C105.277 53.8933 105.41 53.52 105.677 53.52C105.997 53.52 106.157 53.7333 106.157 54.16C106.157 56.6667 106.77 58.56 107.997 59.84C109.277 61.12 110.85 61.76 112.717 61.76C114.584 61.76 116.37 61.2267 118.077 60.16C119.837 59.0933 121.464 57.7333 122.957 56.08C125.41 53.4133 127.49 50.72 129.197 48C130.904 45.2267 132.45 42.4 133.837 39.52C135.277 36.5867 136.717 33.5467 138.157 30.4C139.064 28.48 140.184 26.8 141.517 25.36C142.904 23.92 144.557 22.9333 146.477 22.4L146.557 22.32H142.157C140.29 22.32 138.317 22.4 136.237 22.56C134.157 22.72 132.264 23.0667 130.557 23.6C128.904 24.1333 127.704 24.9333 126.957 26C126.477 26.6933 126.237 27.4933 126.237 28.4C126.237 29.3067 126.477 30.1867 126.957 31.04C127.437 31.8933 128.05 32.5067 128.797 32.88C128.904 32.9867 128.957 33.0667 128.957 33.12C128.957 33.2267 128.824 33.36 128.557 33.52C128.344 33.6267 128.104 33.6533 127.837 33.6C127.41 33.3333 126.877 32.9067 126.237 32.32C125.597 31.68 125.01 31.0133 124.477 30.32C123.997 29.6267 123.677 29.04 123.517 28.56C123.304 27.92 123.197 27.28 123.197 26.64C123.197 25.36 123.65 24.32 124.557 23.52C125.517 22.72 126.744 22.1067 128.237 21.68C129.73 21.2533 131.33 20.96 133.037 20.8C134.797 20.5867 136.477 20.48 138.077 20.48C139.73 20.4267 141.144 20.4 142.317 20.4H150.957C151.064 20.4 151.117 20.4267 151.117 20.48C151.117 20.64 150.93 20.88 150.557 21.2C150.237 21.4667 150.024 21.6 149.917 21.6C148.584 21.8667 147.597 22.5867 146.957 23.76C146.317 24.88 146.024 26.6933 146.077 29.2C146.077 29.2 146.077 29.7867 146.077 30.96C146.13 32.1333 146.184 33.6533 146.237 35.52C146.29 37.3867 146.344 39.3867 146.397 41.52C146.45 43.6533 146.504 45.7067 146.557 47.68C146.61 49.6533 146.664 51.3067 146.717 52.64V53.12L174.477 23.84C176.237 21.9733 177.97 20.4 179.677 19.12C181.437 17.7867 183.25 17.2 185.117 17.36C185.17 17.36 185.197 17.3867 185.197 17.44C185.25 17.44 185.277 17.44 185.277 17.44C185.277 17.6 185.17 17.7867 184.957 18C184.744 18.2133 184.504 18.3467 184.237 18.4C182.85 18.3467 181.597 18.88 180.477 20C179.357 21.12 178.317 22.4533 177.357 24C176.877 24.8 176.157 26.08 175.197 27.84C174.237 29.5467 173.144 31.5733 171.917 33.92C170.744 36.2667 169.544 38.7467 168.317 41.36C167.09 43.9733 165.944 46.5333 164.877 49.04C163.864 51.5467 163.037 53.84 162.397 55.92C161.757 57.9467 161.437 59.6 161.437 60.88C161.437 62.3733 161.944 63.12 162.957 63.12C163.384 63.12 163.837 63.0133 164.317 62.8C165.01 62.5333 165.784 62.1333 166.637 61.6C167.49 61.0667 168.264 60.4533 168.957 59.76C170.344 58.4267 171.57 57.0667 172.637 55.68C173.704 54.24 174.344 53.4133 174.557 53.2C174.717 52.9867 174.85 52.88 174.957 52.88C175.17 52.88 175.277 53.04 175.277 53.36C175.277 53.68 175.17 53.9733 174.957 54.24C174.53 54.7733 173.81 55.7067 172.797 57.04C171.784 58.32 170.584 59.6267 169.197 60.96C167.864 62.2933 166.424 63.3067 164.877 64C164.397 64.2133 163.89 64.3733 163.357 64.48C162.824 64.64 162.29 64.72 161.757 64.72C160.584 64.72 159.517 64.3733 158.557 63.68C157.65 62.9333 157.197 61.7067 157.197 60C157.197 58.3467 157.57 56.48 158.317 54.4C159.117 52.2667 159.997 50.2133 160.957 48.24C161.97 46.2133 162.797 44.5067 163.437 43.12C164.13 41.68 165.01 39.84 166.077 37.6C167.144 35.36 168.37 33.0933 169.757 30.8L146.717 55.12C146.664 55.5467 146.477 55.9733 146.157 56.4C145.837 56.7733 145.33 57.0933 144.637 57.36C144.264 57.52 143.757 57.9467 143.117 58.64C142.477 59.3333 142.05 59.8133 141.837 60.08C141.837 60.1333 141.757 60.16 141.597 60.16C141.437 60.16 141.277 60.1067 141.117 60C140.957 59.8933 140.904 59.8133 140.957 59.76C142.344 58 143.064 55.5733 143.117 52.48L143.197 50.56C143.304 48.32 143.384 45.9733 143.437 43.52C143.49 41.0133 143.517 38.6933 143.517 36.56C143.57 34.3733 143.597 32.6133 143.597 31.28C143.597 29.8933 143.597 29.2 143.597 29.2C143.597 27.92 143.784 26.8 144.157 25.84C144.53 24.88 144.984 24.0533 145.517 23.36C144.61 24.0533 143.73 24.88 142.877 25.84C142.024 26.8 141.304 27.8667 140.717 29.04C139.917 30.6933 139.01 32.8267 137.997 35.44C136.984 38.0533 135.81 40.8267 134.477 43.76C133.197 46.6933 131.757 49.5733 130.157 52.4C128.61 55.1733 126.877 57.5733 124.957 59.6C123.624 61.04 121.917 62.2667 119.837 63.28C117.81 64.2933 115.89 64.8 114.077 64.8Z" fill="url(#paint1_diamond_11_479)"/>
<defs>
<radialGradient id="paint0_angular_11_479" cx="0" cy="0" r="1" gradientUnits="userSpaceOnUse" gradientTransform="translate(55.7305 45.3523) rotate(68.2657) scale(25.0322 50.7886)">
<stop offset="0.0439839" stop-color="#0F2DC8"/>
<stop offset="0.0576512" stop-color="#3757FF"/>
<stop offset="0.414294" stop-color="#42FF00"/>
<stop offset="0.743152" stop-color="#F70000" stop-opacity="0.498239"/>
</radialGradient>
<radialGradient id="paint1_diamond_11_479" cx="0" cy="0" r="1" gradientUnits="userSpaceOnUse" gradientTransform="translate(138 17.8218) rotate(90) scale(82.1782 103.545)">
<stop stop-color="#55DF52"/>
<stop offset="0.330956" stop-color="#009DFF"/>
<stop offset="0.534093" stop-color="#0047FF"/>
<stop offset="0.747647" stop-color="#00278A"/>
<stop offset="1" stop-opacity="0"/>
<stop offset="1" stop-color="#9C00FC"/>
</radialGradient>
</defs>
</svg>
