<svg width="34" height="28" viewBox="0 0 34 28" fill="none" xmlns="http://www.w3.org/2000/svg">
<path d="M28.6663 0.666687H5.33301C4.00693 0.666687 2.73516 1.19347 1.79747 2.13115C0.859792 3.06884 0.333008 4.3406 0.333008 5.66669V22.3334C0.333008 23.6594 0.859792 24.9312 1.79747 25.8689C2.73516 26.8066 4.00693 27.3334 5.33301 27.3334H28.6663C29.9924 27.3334 31.2642 26.8066 32.2019 25.8689C33.1396 24.9312 33.6663 23.6594 33.6663 22.3334V5.66669C33.6663 4.3406 33.1396 3.06884 32.2019 2.13115C31.2642 1.19347 29.9924 0.666687 28.6663 0.666687ZM27.983 4.00002L18.183 13.8C18.0281 13.9562 17.8437 14.0802 17.6406 14.1648C17.4375 14.2495 17.2197 14.293 16.9997 14.293C16.7797 14.293 16.5618 14.2495 16.3587 14.1648C16.1556 14.0802 15.9713 13.9562 15.8163 13.8L6.01634 4.00002H27.983ZM30.333 22.3334C30.333 22.7754 30.1574 23.1993 29.8449 23.5119C29.5323 23.8244 29.1084 24 28.6663 24H5.33301C4.89098 24 4.46706 23.8244 4.1545 23.5119C3.84194 23.1993 3.66634 22.7754 3.66634 22.3334V6.35002L13.4663 16.15C14.4038 17.0864 15.6747 17.6123 16.9997 17.6123C18.3247 17.6123 19.5955 17.0864 20.533 16.15L30.333 6.35002V22.3334Z" fill="black"/>
</svg>
