<svg width="40" height="40" viewBox="0 0 40 40" fill="none" xmlns="http://www.w3.org/2000/svg">
<path d="M1.84498 28.5567L3.51165 31.445C4.17636 32.5925 5.26876 33.4297 6.54957 33.7733C7.83037 34.117 9.19516 33.939 10.345 33.2783L11.7066 32.4917C12.2285 32.8384 12.7718 33.1518 13.3333 33.43V35C13.3333 36.3261 13.8601 37.5979 14.7978 38.5355C15.7355 39.4732 17.0072 40 18.3333 40H21.6666C22.9927 40 24.2645 39.4732 25.2022 38.5355C26.1399 37.5979 26.6666 36.3261 26.6666 35V33.43C27.2288 33.1503 27.7727 32.8352 28.295 32.4867L29.6566 33.2733C30.2256 33.602 30.8538 33.8153 31.5052 33.901C32.1567 33.9868 32.8187 33.9433 33.4533 33.773C34.0879 33.6027 34.6828 33.3091 35.2038 32.9087C35.7249 32.5084 36.1619 32.0093 36.49 31.44L38.1566 28.5517C38.4853 27.9827 38.6986 27.3545 38.7844 26.7031C38.8701 26.0516 38.8266 25.3896 38.6563 24.755C38.4861 24.1204 38.1924 23.5255 37.7921 23.0045C37.3917 22.4834 36.8926 22.0464 36.3233 21.7183L34.965 20.9333C35.0116 20.3064 35.0116 19.6769 34.965 19.05L36.3233 18.265C36.8926 17.937 37.3917 17.4999 37.7921 16.9789C38.1924 16.4578 38.4861 15.863 38.6563 15.2283C38.8266 14.5937 38.8701 13.9317 38.7844 13.2803C38.6986 12.6288 38.4853 12.0006 38.1566 11.4317L36.49 8.54333C35.8253 7.39586 34.7329 6.55861 33.4521 6.21498C32.1713 5.87135 30.8065 6.04936 29.6566 6.71L28.295 7.49667C27.7722 7.15382 27.2284 6.84431 26.6666 6.57V5C26.6666 3.67392 26.1399 2.40215 25.2022 1.46447C24.2645 0.526784 22.9927 0 21.6666 0L18.3333 0C17.0072 0 15.7355 0.526784 14.7978 1.46447C13.8601 2.40215 13.3333 3.67392 13.3333 5V6.57C12.7711 6.84971 12.2273 7.16479 11.705 7.51333L10.3433 6.72667C9.19349 6.06602 7.82871 5.88802 6.5479 6.23165C5.2671 6.57528 4.1747 7.41253 3.50998 8.56L1.84331 11.4483C1.51464 12.0173 1.30134 12.6455 1.2156 13.2969C1.12986 13.9484 1.17337 14.6104 1.34364 15.245C1.5139 15.8796 1.80759 16.4745 2.20791 16.9955C2.60822 17.5166 3.10731 17.9536 3.67665 18.2817L5.03498 19.0667C4.98831 19.6936 4.98831 20.3231 5.03498 20.95L3.67665 21.735C2.53026 22.3978 1.69358 23.4882 1.35019 24.7671C1.00681 26.046 1.18475 27.4088 1.84498 28.5567ZM5.34498 24.6133L7.64331 23.28C7.92934 23.1145 8.15969 22.8676 8.30511 22.5709C8.45052 22.2741 8.50443 21.9408 8.45998 21.6133C8.31499 20.5415 8.31499 19.4551 8.45998 18.3833C8.50443 18.0559 8.45052 17.7226 8.30511 17.4258C8.15969 17.129 7.92934 16.8822 7.64331 16.7167L5.34498 15.3833C4.96281 15.1626 4.68379 14.7993 4.56912 14.3731C4.45446 13.947 4.5135 13.4927 4.73331 13.11L6.39998 10.2233C6.621 9.84054 6.98503 9.56123 7.41198 9.44683C7.83894 9.33244 8.29385 9.39233 8.67665 9.61333L10.9733 10.9467C11.2618 11.1117 11.593 11.1867 11.9245 11.162C12.2559 11.1374 12.5724 11.0142 12.8333 10.8083C13.6842 10.1419 14.6238 9.59722 15.625 9.19C15.9327 9.06551 16.1963 8.85194 16.3819 8.57667C16.5675 8.3014 16.6666 7.97699 16.6666 7.645V5C16.6666 4.55797 16.8422 4.13405 17.1548 3.82149C17.4674 3.50893 17.8913 3.33333 18.3333 3.33333H21.6666C22.1087 3.33333 22.5326 3.50893 22.8452 3.82149C23.1577 4.13405 23.3333 4.55797 23.3333 5V7.645C23.3333 7.97699 23.4325 8.3014 23.6181 8.57667C23.8037 8.85194 24.0672 9.06551 24.375 9.19C25.3762 9.59722 26.3157 10.1419 27.1666 10.8083C27.4284 11.0129 27.7453 11.1346 28.0768 11.1578C28.4082 11.1809 28.739 11.1045 29.0266 10.9383L31.3233 9.61333C31.7061 9.39233 32.161 9.33244 32.588 9.44683C33.0149 9.56123 33.379 9.84054 33.6 10.2233L35.2666 13.11C35.4877 13.4928 35.5475 13.9477 35.4331 14.3747C35.3187 14.8016 35.0394 15.1656 34.6566 15.3867L32.3583 16.72C32.0723 16.8855 31.8419 17.1324 31.6965 17.4291C31.5511 17.7259 31.4972 18.0592 31.5416 18.3867C31.6199 18.921 31.6617 19.46 31.6666 20C31.6618 20.5405 31.62 21.0801 31.5416 21.615C31.4972 21.9425 31.5511 22.2758 31.6965 22.5725C31.8419 22.8693 32.0723 23.1161 32.3583 23.2817L34.6566 24.615C35.0394 24.836 35.3187 25.2 35.4331 25.627C35.5475 26.054 35.4877 26.5089 35.2666 26.8917L33.6 29.7783C33.379 30.1611 33.0149 30.4404 32.588 30.5548C32.161 30.6692 31.7061 30.6093 31.3233 30.3883L29.0266 29.0633C28.739 28.8972 28.4082 28.8207 28.0768 28.8439C27.7453 28.8671 27.4284 28.9887 27.1666 29.1933C26.3157 29.8598 25.3762 30.4044 24.375 30.8117C24.0672 30.9362 23.8037 31.1497 23.6181 31.425C23.4325 31.7003 23.3333 32.0247 23.3333 32.3567V35C23.3333 35.442 23.1577 35.866 22.8452 36.1785C22.5326 36.4911 22.1087 36.6667 21.6666 36.6667H18.3333C17.8913 36.6667 17.4674 36.4911 17.1548 36.1785C16.8422 35.866 16.6666 35.442 16.6666 35V32.355C16.6666 32.023 16.5675 31.6986 16.3819 31.4233C16.1963 31.1481 15.9327 30.9345 15.625 30.81C14.6238 30.4028 13.6842 29.8581 12.8333 29.1917C12.5678 28.9952 12.2517 28.8786 11.9223 28.8556C11.5928 28.8325 11.2636 28.904 10.9733 29.0617L8.67665 30.3867C8.29385 30.6077 7.83894 30.6676 7.41198 30.5532C6.98503 30.4388 6.621 30.1595 6.39998 29.7767L4.73331 26.89C4.51231 26.5072 4.45242 26.0523 4.56681 25.6253C4.68121 25.1984 4.96219 24.8344 5.34498 24.6133Z" fill="#0500FF"/>
<path d="M20.0001 28.3333C21.6483 28.3333 23.2594 27.8446 24.6298 26.9289C26.0002 26.0132 27.0683 24.7117 27.6991 23.189C28.3298 21.6663 28.4948 19.9908 28.1733 18.3742C27.8517 16.7577 27.0581 15.2729 25.8926 14.1074C24.7272 12.942 23.2423 12.1483 21.6258 11.8268C20.0093 11.5052 18.3338 11.6703 16.8111 12.301C15.2883 12.9317 13.9868 13.9998 13.0712 15.3702C12.1555 16.7407 11.6667 18.3518 11.6667 20C11.6694 22.2093 12.5482 24.3274 14.1104 25.8896C15.6727 27.4519 17.7908 28.3307 20.0001 28.3333ZM20.0001 15C20.989 15 21.9557 15.2932 22.7779 15.8427C23.6002 16.3921 24.241 17.173 24.6195 18.0866C24.9979 19.0002 25.0969 20.0055 24.904 20.9755C24.7111 21.9454 24.2349 22.8363 23.5356 23.5355C22.8364 24.2348 21.9454 24.711 20.9755 24.9039C20.0056 25.0969 19.0003 24.9978 18.0867 24.6194C17.173 24.241 16.3921 23.6001 15.8427 22.7779C15.2933 21.9556 15.0001 20.9889 15.0001 20C15.0001 18.6739 15.5269 17.4021 16.4645 16.4645C17.4022 15.5268 18.674 15 20.0001 15Z" fill="#0047FF"/>
</svg>
