<svg width="50" height="50" viewBox="0 0 50 50" fill="none" xmlns="http://www.w3.org/2000/svg">
<path d="M47.2405 18.8754L2.00195 21.609L3.24467 42.1746L48.4832 39.441L47.2405 18.8754Z" fill="#0029FF"/>
<path d="M9.29053 37.0789C8.51171 37.0805 7.76004 36.7929 7.18115 36.2719C6.86828 35.9934 6.61339 35.6559 6.43108 35.2788C6.24876 34.9017 6.14259 34.4924 6.11865 34.0742C6.11049 33.9675 6.12364 33.8603 6.15734 33.7588C6.19103 33.6573 6.24459 33.5634 6.31491 33.4828C6.38522 33.4022 6.47087 33.3364 6.56688 33.2892C6.66288 33.242 6.76732 33.2144 6.87411 33.2079C6.98089 33.2015 7.08789 33.2164 7.18886 33.2517C7.28984 33.2871 7.38277 33.3421 7.46225 33.4137C7.54172 33.4854 7.60615 33.5721 7.65178 33.6688C7.69741 33.7656 7.72333 33.8705 7.72803 33.9773C7.7396 34.1854 7.79215 34.3891 7.88264 34.5768C7.97314 34.7645 8.0998 34.9325 8.25537 35.0711C8.40842 35.2078 8.58709 35.3127 8.78102 35.3797C8.97495 35.4468 9.18027 35.4747 9.38506 35.4617C9.69559 35.4382 9.99235 35.3239 10.2384 35.133C10.4845 34.9421 10.6689 34.6831 10.7688 34.3881C10.8688 34.0932 10.8797 33.7753 10.8004 33.4742C10.721 33.1731 10.5549 32.9019 10.3226 32.6945C10.1697 32.5575 9.99111 32.4523 9.79712 32.3852C9.60313 32.3182 9.39769 32.2905 9.19287 32.3039C8.77541 32.3312 8.35673 32.2743 7.96165 32.1368C7.56657 31.9992 7.20312 31.7837 6.89287 31.5031C6.49742 31.1573 6.19362 30.7191 6.00852 30.2274C5.82342 29.7358 5.76276 29.206 5.83195 28.6853C5.90114 28.1645 6.09802 27.6689 6.40508 27.2427C6.71213 26.8164 7.11982 26.4727 7.59184 26.2422C8.06387 26.0116 8.58559 25.9013 9.11054 25.9212C9.63549 25.941 10.1474 26.0904 10.6007 26.356C11.0539 26.6215 11.4345 26.995 11.7085 27.4433C11.9824 27.8915 12.1413 28.4005 12.171 28.925C12.1792 29.0317 12.166 29.1389 12.1323 29.2404C12.0986 29.3419 12.045 29.4358 11.9747 29.5164C11.9044 29.597 11.8188 29.6628 11.7228 29.71C11.6268 29.7572 11.5223 29.7848 11.4155 29.7913C11.3088 29.7977 11.2018 29.7828 11.1008 29.7475C10.9998 29.7121 10.9069 29.6571 10.8274 29.5854C10.7479 29.5138 10.6835 29.4271 10.6379 29.3304C10.5922 29.2336 10.5663 29.1287 10.5616 29.0219C10.55 28.8138 10.4975 28.6101 10.407 28.4224C10.3165 28.2347 10.1898 28.0667 10.0343 27.9281C9.8812 27.7915 9.70252 27.6866 9.5086 27.6195C9.31468 27.5525 9.10937 27.5246 8.90459 27.5375C8.59406 27.561 8.29729 27.6753 8.05124 27.8662C7.80519 28.0571 7.62072 28.3161 7.52079 28.6111C7.42087 28.906 7.4099 29.2239 7.48925 29.525C7.56861 29.8261 7.73478 30.0973 7.96709 30.3047C8.12011 30.4412 8.29867 30.5459 8.49244 30.613C8.68621 30.68 8.89135 30.708 9.09599 30.6953C9.51363 30.6687 9.93237 30.7258 10.3276 30.8634C10.7229 31.0009 11.0866 31.216 11.3976 31.4961C11.8657 31.9163 12.1997 32.465 12.358 33.0739C12.5163 33.6827 12.4918 34.3246 12.2875 34.9196C12.0833 35.5146 11.7084 36.0363 11.2096 36.4196C10.7108 36.8029 10.1102 37.0308 9.48271 37.075C9.42021 37.0766 9.35537 37.0789 9.29053 37.0789Z" fill="url(#paint0_linear_3_15)"/>
<path d="M19.8828 36.5219C18.7944 36.5121 17.7316 36.1899 16.821 35.5937C15.9103 34.9975 15.1899 34.1523 14.7456 33.1586C14.3013 32.165 14.1516 31.0646 14.3144 29.9884C14.4772 28.9121 14.9457 27.9053 15.6641 27.0875C16.1529 26.53 16.7474 26.075 17.4133 25.7487C18.0791 25.4225 18.803 25.2315 19.5431 25.1868C20.2832 25.1421 21.0249 25.2446 21.7251 25.4884C22.4253 25.7322 23.0703 26.1124 23.6227 26.607C24.4562 27.3516 25.0515 28.3256 25.3342 29.4069C25.6169 30.4882 25.5744 31.6289 25.2119 32.6861C24.8495 33.7434 24.1833 34.6703 23.2966 35.3508C22.41 36.0312 21.3424 36.4351 20.2273 36.5117C20.1102 36.5188 20 36.5219 19.8828 36.5219ZM19.8828 26.7883C19.8047 26.7883 19.7195 26.7883 19.6375 26.7961C19.11 26.8271 18.5939 26.963 18.1196 27.1959C17.6452 27.4287 17.2221 27.7539 16.875 28.1523C16.3468 28.7475 16.007 29.486 15.8987 30.2743C15.7903 31.0626 15.9183 31.8654 16.2663 32.581C16.6143 33.2966 17.1668 33.8929 17.8538 34.2943C18.5408 34.6958 19.3315 34.8845 20.1258 34.8365C20.9201 34.7885 21.6823 34.5059 22.3159 34.0246C22.9496 33.5432 23.4262 32.8847 23.6855 32.1324C23.9448 31.3801 23.975 30.5678 23.7725 29.7983C23.57 29.0287 23.1437 28.3366 22.5477 27.8094C21.8164 27.1508 20.8669 26.787 19.8828 26.7883Z" fill="url(#paint1_linear_3_15)"/>
<path d="M27.7641 35.668L27.175 25.9211C27.1687 25.8155 27.1832 25.7096 27.2177 25.6096C27.2523 25.5096 27.3062 25.4174 27.3764 25.3382C27.4466 25.259 27.5316 25.1944 27.6268 25.1481C27.7219 25.1018 27.8253 25.0747 27.9309 25.0684C28.0365 25.062 28.1424 25.0765 28.2424 25.111C28.3424 25.1456 28.4346 25.1995 28.5138 25.2697C28.593 25.3399 28.6576 25.425 28.7039 25.5201C28.7502 25.6153 28.7773 25.7186 28.7836 25.8242L29.275 33.9609L33.793 33.6883C33.8996 33.6803 34.0066 33.6935 34.108 33.7273C34.2094 33.761 34.303 33.8146 34.3835 33.8849C34.464 33.9551 34.5298 34.0407 34.5769 34.1366C34.624 34.2325 34.6516 34.3368 34.6581 34.4434C34.6646 34.5501 34.6498 34.657 34.6146 34.7578C34.5794 34.8587 34.5245 34.9516 34.4531 35.0311C34.3817 35.1106 34.2952 35.1751 34.1986 35.2208C34.1021 35.2666 33.9974 35.2927 33.8907 35.2976L27.7641 35.668Z" fill="url(#paint2_linear_3_15)"/>
<path d="M36.6282 35.0328L36.0032 24.6797L39.4532 24.4719C40.7106 24.3958 41.9467 24.8221 42.8899 25.6572C43.8331 26.4922 44.406 27.6676 44.4829 28.925L44.5313 29.7945C44.6076 31.0519 44.1813 32.2881 43.3462 33.2312C42.5111 34.1743 41.3355 34.747 40.0782 34.8234L36.6282 35.0328ZM37.7094 26.1922L38.1399 33.3258L39.9805 33.2141C40.8115 33.1638 41.5886 32.7855 42.1408 32.1624C42.6929 31.5393 42.975 30.7225 42.925 29.8914L42.8727 29.025C42.8479 28.6135 42.7423 28.2109 42.5619 27.8403C42.3815 27.4696 42.1298 27.1382 41.8212 26.8648C41.5127 26.5914 41.1533 26.3815 40.7636 26.2471C40.3739 26.1126 39.9615 26.0563 39.55 26.0813L37.7094 26.1922Z" fill="url(#paint3_linear_3_15)"/>
<path d="M37.8906 19.8703L24.9883 7.72969C25.4645 7.34464 25.802 6.8147 25.9496 6.22035C26.0971 5.626 26.0467 4.99973 25.8058 4.43667C25.565 3.87362 25.147 3.40455 24.6153 3.10072C24.0836 2.79689 23.4672 2.67491 22.8599 2.75331C22.2525 2.8317 21.6874 3.10619 21.2502 3.53507C20.8131 3.96395 20.5279 4.52379 20.4379 5.12954C20.348 5.73529 20.4582 6.35384 20.7518 6.89125C21.0455 7.42865 21.5065 7.85552 22.0648 8.10703L10.1297 21.5336C9.98755 21.6933 9.9147 21.903 9.92715 22.1165C9.9396 22.33 10.0363 22.5297 10.1961 22.6719C10.3559 22.814 10.5655 22.8869 10.779 22.8744C10.9925 22.862 11.1922 22.7652 11.3344 22.6055L23.682 8.71406L36.7828 21.0438C36.8592 21.1193 36.9499 21.1788 37.0496 21.2187C37.1493 21.2587 37.2559 21.2783 37.3633 21.2764C37.4707 21.2745 37.5766 21.2512 37.6749 21.2078C37.7731 21.1644 37.8617 21.1017 37.9353 21.0236C38.009 20.9454 38.0663 20.8533 38.1039 20.7527C38.1414 20.6521 38.1585 20.545 38.154 20.4377C38.1495 20.3303 38.1237 20.225 38.0779 20.1278C38.0321 20.0307 37.9674 19.9437 37.8875 19.8719L37.8906 19.8703ZM23.2274 4.33437C23.4664 4.33437 23.7001 4.40523 23.8989 4.53798C24.0977 4.67073 24.2527 4.85942 24.3444 5.08022C24.436 5.30102 24.4601 5.54403 24.4137 5.77854C24.3673 6.01305 24.2524 6.22854 24.0836 6.3978C23.9148 6.56706 23.6996 6.68249 23.4652 6.7295C23.2308 6.77652 22.9877 6.75302 22.7667 6.66196C22.5457 6.5709 22.3566 6.41638 22.2233 6.21791C22.09 6.01944 22.0186 5.78593 22.018 5.54687C22.0177 5.38782 22.0487 5.23027 22.1093 5.08323C22.17 4.93619 22.259 4.80254 22.3713 4.68993C22.4836 4.57731 22.6171 4.48795 22.7639 4.42694C22.9108 4.36593 23.0683 4.33448 23.2274 4.33437Z" fill="#0038FF"/>
<defs>
<linearGradient id="paint0_linear_3_15" x1="5.82803" y1="31.4984" x2="12.4694" y2="31.4984" gradientUnits="userSpaceOnUse">
<stop stop-color="white"/>
<stop offset="1" stop-color="#F1F2F2"/>
</linearGradient>
<linearGradient id="paint1_linear_3_15" x1="14.2477" y1="30.8492" x2="25.5164" y2="30.8492" gradientUnits="userSpaceOnUse">
<stop stop-color="white"/>
<stop offset="1" stop-color="#F1F2F2"/>
</linearGradient>
<linearGradient id="paint2_linear_3_15" x1="27.1735" y1="30.3672" x2="34.6485" y2="30.3672" gradientUnits="userSpaceOnUse">
<stop stop-color="white"/>
<stop offset="1" stop-color="#F1F2F2"/>
</linearGradient>
<linearGradient id="paint3_linear_3_15" x1="36.0024" y1="29.7477" x2="44.543" y2="29.7477" gradientUnits="userSpaceOnUse">
<stop stop-color="white"/>
<stop offset="1" stop-color="#F1F2F2"/>
</linearGradient>
</defs>
</svg>
