<svg width="50" height="50" viewBox="0 0 50 50" fill="none" xmlns="http://www.w3.org/2000/svg">
<g clip-path="url(#clip0_3_7)">
<path d="M6.50972 28.4984V47.8899C6.50972 48.3777 6.11421 48.7733 5.62632 48.7733H2.11021C1.62231 48.7733 1.22681 48.3777 1.22681 47.8899V28.4984C1.22681 28.0105 1.62231 27.615 2.11021 27.615H5.62632C6.11421 27.615 6.50972 28.0105 6.50972 28.4984ZM27.6416 28.4984V47.8899C27.6416 48.3777 27.246 48.7733 26.7582 48.7733H23.242C22.7542 48.7733 22.3586 48.3777 22.3586 47.8899V28.4984C22.3586 28.0105 22.7542 27.615 23.242 27.615H26.7582C27.246 27.615 27.6416 28.0105 27.6416 28.4984ZM48.7734 22.8471V47.8899C48.7734 48.3777 48.3779 48.7733 47.89 48.7733H44.3739C43.886 48.7733 43.4905 48.3777 43.4905 47.8899V22.8471C43.4905 22.3592 43.886 21.9637 44.3739 21.9637H47.89C48.3778 21.9637 48.7734 22.3592 48.7734 22.8471Z" fill="#006AFB"/>
<path d="M17.0756 34.3531V47.8899C17.0756 48.3777 16.6801 48.7732 16.1922 48.7732H12.6761C12.1882 48.7732 11.7927 48.3777 11.7927 47.8899V34.3531C11.7927 33.8652 12.1882 33.4697 12.6761 33.4697H16.1922C16.6801 33.4697 17.0756 33.8652 17.0756 34.3531ZM38.2075 31.7637V47.8899C38.2075 48.3777 37.812 48.7732 37.3241 48.7732H33.808C33.3201 48.7732 32.9246 48.3777 32.9246 47.8899V31.7637C32.9246 31.2758 33.3201 30.8803 33.808 30.8803H37.3241C37.8119 30.8802 38.2075 31.2758 38.2075 31.7637Z" fill="#D7E9FF"/>
<path d="M23.8944 9.69472C23.8944 14.3749 20.0978 18.1628 15.4175 18.1628C10.7461 18.1628 6.94946 14.3749 6.94946 9.69472C6.94946 5.01455 10.7461 1.22665 15.4175 1.22665C20.0978 1.22675 23.8944 5.01455 23.8944 9.69472Z" fill="white"/>
<path d="M5.62654 26.8484H2.11042C1.20046 26.8484 0.459839 27.5883 0.459839 28.4982V47.8896C0.459839 48.7995 1.20046 49.5401 2.11042 49.5401H5.62654C6.5365 49.5401 7.27634 48.7995 7.27634 47.8896V28.4982C7.27634 27.5882 6.5364 26.8484 5.62654 26.8484ZM5.74255 47.8896C5.74255 47.954 5.69011 48.0064 5.62644 48.0064H2.11042C2.04597 48.0064 1.99363 47.9539 1.99363 47.8896V28.4982C1.99363 28.4345 2.04607 28.382 2.11042 28.382H5.62654C5.69021 28.382 5.74265 28.4345 5.74265 28.4982L5.74255 47.8896ZM16.1921 32.7026H12.676C11.766 32.7026 11.0254 33.4432 11.0254 34.3531V47.8897C11.0254 48.7996 11.766 49.5402 12.676 49.5402H16.1921C17.102 49.5402 17.8427 48.7996 17.8427 47.8897V34.3531C17.8427 33.4432 17.102 32.7026 16.1921 32.7026ZM16.309 47.8896C16.309 47.954 16.2565 48.0064 16.1922 48.0064H12.676C12.6116 48.0064 12.5593 47.9539 12.5593 47.8896V34.3531C12.5593 34.2887 12.6117 34.2363 12.676 34.2363H16.1922C16.2566 34.2363 16.309 34.2888 16.309 34.3531V47.8896ZM26.7577 26.8484H23.2424C22.3324 26.8484 21.5918 27.5883 21.5918 28.4982V47.8896C21.5918 48.7995 22.3324 49.5401 23.2424 49.5401H26.7577C27.6676 49.5401 28.4083 48.7995 28.4083 47.8896V28.4982C28.4083 27.5882 27.6676 26.8484 26.7577 26.8484ZM26.8745 47.8896C26.8745 47.954 26.822 48.0064 26.7577 48.0064H23.2424C23.1779 48.0064 23.1256 47.9539 23.1256 47.8896V28.4982C23.1256 28.4345 23.178 28.382 23.2424 28.382H26.7577C26.8221 28.382 26.8745 28.4345 26.8745 28.4982V47.8896ZM37.324 30.1136H33.8079C32.8979 30.1136 32.1573 30.8535 32.1573 31.7634V47.8896C32.1573 48.7995 32.8979 49.5401 33.8079 49.5401H37.324C38.234 49.5401 38.9746 48.7995 38.9746 47.8896V31.7634C38.9746 30.8534 38.2339 30.1136 37.324 30.1136ZM37.4408 47.8896C37.4408 47.954 37.3884 48.0064 37.324 48.0064H33.8079C33.7434 48.0064 33.6911 47.9539 33.6911 47.8896V31.7634C33.6911 31.6997 33.7435 31.6473 33.8079 31.6473H37.324C37.3885 31.6473 37.4408 31.6997 37.4408 31.7634V47.8896ZM47.8895 21.1971H44.3734C43.4635 21.1971 42.7236 21.937 42.7236 22.8469V47.8896C42.7236 48.7995 43.4635 49.5401 44.3734 49.5401H47.8895C48.7995 49.5401 49.5401 48.7995 49.5401 47.8896V22.8469C49.5401 21.937 48.7995 21.1971 47.8895 21.1971ZM48.0064 47.8896C48.0064 47.954 47.954 48.0064 47.8896 48.0064H44.3735C44.3098 48.0064 44.2574 47.9539 44.2574 47.8896V22.8469C44.2574 22.7832 44.3098 22.7308 44.3735 22.7308H47.8896C47.9541 22.7308 48.0064 22.7832 48.0064 22.8469V47.8896Z" fill="#0065FF"/>
<path d="M13.9806 29.0816C14.248 29.2791 14.6178 29.2815 14.8883 29.0816L25.0952 21.5865L35.254 26.1025C35.5678 26.2402 35.9371 26.1549 36.1573 25.8898L45.3663 14.7402L45.3658 17.0565C45.3658 17.4796 45.7087 17.8233 46.1327 17.8233C46.5558 17.8233 46.8996 17.4804 46.8996 17.0565L46.9003 12.6102C46.9003 12.2004 46.5181 11.7956 46.0465 11.8487C46.046 11.8487 46.0456 11.8485 46.0451 11.8485L41.622 12.3623C41.2011 12.4109 40.9 12.7914 40.9488 13.2123C40.9974 13.6332 41.3772 13.9417 41.7988 13.8856L44.3247 13.5924L35.3455 24.4647L25.3116 20.004C25.0607 19.8932 24.7686 19.9232 24.5461 20.0871L14.4344 27.5125L4.32202 20.0872C3.97905 19.8363 3.49975 19.9105 3.25034 20.2512C2.99946 20.5927 3.0728 21.0728 3.4143 21.3229L13.9806 29.0816Z" fill="#0065FF"/>
<path d="M15.4178 18.9294C20.5148 18.9294 24.6615 14.7864 24.6615 9.69464C24.6615 4.60284 20.5148 0.459869 15.4178 0.459869C10.326 0.459869 6.18298 4.60284 6.18298 9.69464C6.18298 14.7864 10.3259 18.9294 15.4178 18.9294ZM15.4178 1.99356C19.6693 1.99356 23.1277 5.44825 23.1277 9.69454C23.1277 13.9408 19.6692 17.3955 15.4178 17.3955C11.1715 17.3955 7.71677 13.9408 7.71677 9.69454C7.71677 5.44825 11.1715 1.99356 15.4178 1.99356Z" fill="#0065FF"/>
<path d="M15.5646 12.2738H13.607C13.1831 12.2738 12.8401 12.6168 12.8401 13.0407C12.8401 13.4646 13.1831 13.8076 13.607 13.8076H14.6577V14.2112C14.6577 14.6351 15.0006 14.9781 15.4246 14.9781C15.8485 14.9781 16.1915 14.6351 16.1915 14.2112V13.7156C17.2317 13.4368 18.0039 12.4946 18.0039 11.3676C18.0039 10.0225 16.9097 8.92762 15.5647 8.92762C15.4804 8.92762 15.2029 8.92762 15.2801 8.92762C14.7806 8.92762 14.374 8.52098 14.374 8.02147C14.374 7.52196 14.7806 7.116 15.2801 7.116H17.2371C17.661 7.116 18.004 6.77303 18.004 6.34911C18.004 5.92518 17.661 5.58221 17.2371 5.58221H16.1915V5.1787C16.1915 4.75477 15.8485 4.4118 15.4246 4.4118C15.0006 4.4118 14.6577 4.75477 14.6577 5.1787V5.67284C13.6149 5.94999 12.8401 6.89364 12.8401 8.02225C12.8401 9.36727 13.935 10.4614 15.28 10.4614H15.5646C16.0641 10.4614 16.4701 10.8681 16.4701 11.3676C16.4701 11.8671 16.0641 12.2738 15.5646 12.2738Z" fill="#0065FF"/>
</g>
<defs>
<clipPath id="clip0_3_7">
<rect width="50" height="50" fill="white"/>
</clipPath>
</defs>
</svg>
