<svg width="44" height="38" viewBox="0 0 44 38" fill="none" xmlns="http://www.w3.org/2000/svg">
<path opacity="0.9" d="M25.0728 0.25C14.7083 0.25 6.33325 8.64583 6.33325 19H0.083252L8.19783 27.1146L8.34367 27.4167L16.7499 19H10.4999C10.4999 10.9479 17.0312 4.41667 25.0833 4.41667C33.1353 4.41667 39.6666 10.9479 39.6666 19C39.6666 27.0521 33.1353 33.5833 25.0833 33.5833C21.052 33.5833 17.4166 31.9375 14.7812 29.3021L11.8333 32.25C15.2187 35.6458 19.8958 37.75 25.0728 37.75C35.4374 37.75 43.8333 29.3542 43.8333 19C43.8333 8.64583 35.4374 0.25 25.0728 0.25ZM22.9999 10.6667V21.0833L31.9166 26.375L33.4166 23.8437L26.1249 19.5208V10.6667H22.9999Z" fill="#001AFF"/>
</svg>
