<svg width="30" height="46" viewBox="0 0 30 46" fill="none" xmlns="http://www.w3.org/2000/svg">
<path d="M0 23.4609C0 24.0572 0.197544 24.629 0.549175 25.0505C0.900806 25.4721 1.37772 25.709 1.875 25.709H16.1063L11.7937 30.857C11.618 31.066 11.4785 31.3146 11.3833 31.5886C11.2881 31.8625 11.2391 32.1564 11.2391 32.4531C11.2391 32.7499 11.2881 33.0437 11.3833 33.3177C11.4785 33.5916 11.618 33.8403 11.7937 34.0492C11.9681 34.2599 12.1754 34.4272 12.4039 34.5413C12.6324 34.6554 12.8775 34.7142 13.125 34.7142C13.3725 34.7142 13.6176 34.6554 13.8461 34.5413C14.0746 34.4272 14.2819 34.2599 14.4563 34.0492L21.9562 25.0571C22.127 24.8433 22.2608 24.5911 22.35 24.3152C22.5375 23.7679 22.5375 23.154 22.35 22.6067C22.2608 22.3307 22.127 22.0786 21.9562 21.8648L14.4563 12.8726C14.2814 12.663 14.0739 12.4968 13.8455 12.3833C13.6171 12.2699 13.3722 12.2115 13.125 12.2115C12.8778 12.2115 12.6329 12.2699 12.4045 12.3833C12.1761 12.4968 11.9686 12.663 11.7937 12.8726C11.6189 13.0822 11.4803 13.3311 11.3856 13.6049C11.291 13.8788 11.2423 14.1723 11.2423 14.4688C11.2423 14.7652 11.291 15.0587 11.3856 15.3326C11.4803 15.6064 11.6189 15.8553 11.7937 16.0649L16.1063 21.2129H1.875C1.37772 21.2129 0.900806 21.4497 0.549175 21.8713C0.197544 22.2929 0 22.8647 0 23.4609ZM24.375 0.980469H5.625C4.13316 0.980469 2.70242 1.69101 1.64752 2.95578C0.592632 4.22055 0 5.93595 0 7.72461V14.4688C0 15.065 0.197544 15.6368 0.549175 16.0584C0.900806 16.4799 1.37772 16.7168 1.875 16.7168C2.37228 16.7168 2.84919 16.4799 3.20082 16.0584C3.55246 15.6368 3.75 15.065 3.75 14.4688V7.72461C3.75 7.12839 3.94754 6.55659 4.29918 6.135C4.65081 5.71341 5.12772 5.47656 5.625 5.47656H24.375C24.8723 5.47656 25.3492 5.71341 25.7008 6.135C26.0525 6.55659 26.25 7.12839 26.25 7.72461V39.1973C26.25 39.7935 26.0525 40.3653 25.7008 40.7869C25.3492 41.2085 24.8723 41.4453 24.375 41.4453H5.625C5.12772 41.4453 4.65081 41.2085 4.29918 40.7869C3.94754 40.3653 3.75 39.7935 3.75 39.1973V32.4531C3.75 31.8569 3.55246 31.2851 3.20082 30.8635C2.84919 30.4419 2.37228 30.2051 1.875 30.2051C1.37772 30.2051 0.900806 30.4419 0.549175 30.8635C0.197544 31.2851 0 31.8569 0 32.4531V39.1973C0 40.9859 0.592632 42.7013 1.64752 43.9661C2.70242 45.2309 4.13316 45.9414 5.625 45.9414H24.375C25.8668 45.9414 27.2976 45.2309 28.3525 43.9661C29.4074 42.7013 30 40.9859 30 39.1973V7.72461C30 5.93595 29.4074 4.22055 28.3525 2.95578C27.2976 1.69101 25.8668 0.980469 24.375 0.980469Z" fill="#0029FF"/>
</svg>
