<svg width="26" height="26" viewBox="0 0 26 26" fill="none" xmlns="http://www.w3.org/2000/svg">
<path d="M21.7734 4.31405C19.4038 1.94243 16.2524 0.635671 12.8948 0.634338C5.97674 0.634338 0.346289 6.26264 0.34352 13.1807C0.342632 15.3921 0.920576 17.5508 2.01891 19.4535L0.238281 25.9554L6.89187 24.2107C8.72513 25.2102 10.7891 25.737 12.8898 25.7379H12.895C19.8123 25.7379 25.4433 20.1089 25.4461 13.1907C25.4474 9.83814 24.1431 6.68568 21.7734 4.31405ZM12.895 23.6188H12.8907C11.0188 23.6181 9.18276 23.1153 7.58107 22.1651L7.2001 21.9391L3.25177 22.9746L4.30566 19.1262L4.05755 18.7316C3.0133 17.0712 2.46177 15.152 2.46259 13.1816C2.46485 7.43155 7.1447 2.75348 12.899 2.75348C15.6853 2.75454 18.3046 3.84077 20.2742 5.81195C22.2438 7.78312 23.3279 10.4034 23.3269 13.1899C23.3246 18.9404 18.6448 23.6188 12.895 23.6188ZM18.6171 15.8082C18.3035 15.6513 16.7617 14.8928 16.4742 14.7882C16.1867 14.6835 15.9777 14.6312 15.7685 14.9451C15.5595 15.259 14.9585 15.9652 14.7755 16.1744C14.5926 16.3836 14.4097 16.4098 14.0961 16.2528C13.7824 16.0959 12.7719 15.7649 11.5741 14.6968C10.6418 13.8656 10.0124 12.8388 9.82944 12.5249C9.64651 12.211 9.81 12.0414 9.96698 11.8851C10.108 11.7446 10.2806 11.5189 10.4374 11.3358C10.5942 11.1528 10.6465 11.022 10.751 10.8127C10.8556 10.6035 10.8033 10.4204 10.7248 10.2635C10.6465 10.1066 10.0192 8.56341 9.75791 7.9357C9.50337 7.32436 9.24477 7.40708 9.05227 7.39747C8.86954 7.38838 8.66026 7.38647 8.45122 7.38647C8.24217 7.38647 7.90239 7.46491 7.61494 7.77878C7.32749 8.09265 6.51733 8.85113 6.51733 10.3942C6.51733 11.9374 7.64105 13.4282 7.79787 13.6374C7.95469 13.8466 10.0093 17.0133 13.1552 18.3713C13.9035 18.6943 14.4876 18.8872 14.9431 19.0318C15.6944 19.2703 16.378 19.2367 16.9184 19.156C17.521 19.066 18.7739 18.3976 19.0353 17.6652C19.2966 16.9329 19.2966 16.3052 19.2182 16.1744C19.1398 16.0436 18.9307 15.9652 18.6171 15.8082Z" fill="white"/>
</svg>
